<svg width="380" height="380" viewBox="0 0 380 380" fill="none" xmlns="http://www.w3.org/2000/svg">
<path fill-rule="evenodd" clip-rule="evenodd" d="M236.711 284.542L189.998 364.17L143.261 284.542H236.711ZM189.999 15.833C257.226 15.8331 311.915 69.6382 311.915 135.778C311.915 201.918 257.226 255.724 189.999 255.724C122.772 255.724 68.082 201.919 68.082 135.778C68.082 69.6381 122.772 15.833 189.999 15.833ZM189.999 73.0469C154.852 73.0469 126.261 101.176 126.261 135.754C126.261 170.332 154.852 198.461 189.999 198.461C225.146 198.461 253.736 170.332 253.736 135.754C253.736 101.176 225.146 73.047 189.999 73.0469Z" fill="#DF1B12"/>
</svg>
